HIERARCHY
ROOT Hips
{
    OFFSET 0.000000 0.000000 0.000000
    CHANNELS 6 Xposition Yposition Zposition Zrotation Xrotation Yrotation
    JOINT Spine
    {
        OFFSET -0.000000 7.246840 0.000000
        CHANNELS 3 Zrotation Xrotation Yrotation
        JOINT Spine1
        {
            OFFSET -0.000000 20.289354 0.000000
            CHANNELS 3 Zrotation Xrotation Yrotation
            JOINT Neck
            {
                OFFSET -0.000000 20.206032 1.836912
                CHANNELS 3 Zrotation Xrotation Yrotation
                JOINT Head
                {
                    OFFSET -0.000000 12.372654 -1.767522
                    CHANNELS 3 Zrotation Xrotation Yrotation
                    End Site
                    {
                        OFFSET -0.000000 22.094025 0.000000
                    }
                }
            }
            JOINT LeftShoulder
            {
                OFFSET 3.465871 17.201674 -0.568930
                CHANNELS 3 Zrotation Xrotation Yrotation
                JOINT LeftArm
                {
                    OFFSET 14.070313 0.000000 0.000000
                    CHANNELS 3 Zrotation Xrotation Yrotation
                    JOINT LeftForeArm
                    {
                        OFFSET 26.549477 0.000000 0.000000
                        CHANNELS 3 Zrotation Xrotation Yrotation
                        JOINT LeftHand
                        {
                            OFFSET 18.880413 0.000000 0.000000
                            CHANNELS 3 Zrotation Xrotation Yrotation
                            End Site
                            {
                                OFFSET 13.256415 0.000000 0.000000
                            }
                        }
                    }
                }
            }
            JOINT RightShoulder
            {
                OFFSET -3.526370 17.201674 -0.568930
                CHANNELS 3 Zrotation Xrotation Yrotation
                JOINT RightArm
                {
                    OFFSET -14.070313 0.000000 0.000000
                    CHANNELS 3 Zrotation Xrotation Yrotation
                    JOINT RightForeArm
                    {
                        OFFSET -26.549477 0.000000 0.000000
                        CHANNELS 3 Zrotation Xrotation Yrotation
                        JOINT RightHand
                        {
                            OFFSET -18.880413 0.000000 0.000000
                            CHANNELS 3 Zrotation Xrotation Yrotation
                            End Site
                            {
                                OFFSET -13.256415 0.000000 0.000000
                            }
                        }
                    }
                }
            }
        }
    }
    JOINT LeftUpLeg
    {
        OFFSET 8.837609 0.000000 0.000000
        CHANNELS 3 Zrotation Xrotation Yrotation
        JOINT LeftLeg
        {
            OFFSET -0.000000 -41.345005 0.000000
            CHANNELS 3 Zrotation Xrotation Yrotation
            JOINT LeftFoot
            {
                OFFSET -0.000000 -35.500874 0.000000
                CHANNELS 3 Zrotation Xrotation Yrotation
                JOINT LeftToeBase
                {
                    OFFSET -0.000000 -5.744446 13.256415
                    CHANNELS 3 Zrotation Xrotation Yrotation
                    End Site
                    {
                        OFFSET -0.000000 0.000000 3.535044
                    }
                }
            }
        }
    }
    JOINT RightUpLeg
    {
        OFFSET -8.837609 0.000000 0.000000
        CHANNELS 3 Zrotation Xrotation Yrotation
        JOINT RightLeg
        {
            OFFSET -0.000000 -41.345005 0.000000
            CHANNELS 3 Zrotation Xrotation Yrotation
            JOINT RightFoot
            {
                OFFSET -0.000000 -35.500874 0.000000
                CHANNELS 3 Zrotation Xrotation Yrotation
                JOINT RightToeBase
                {
                    OFFSET -0.000000 -5.744446 13.256415
                    CHANNELS 3 Zrotation Xrotation Yrotation
                    End Site
                    {
                        OFFSET -0.000000 0.000000 3.535044
                    }
                }
            }
        }
    }
}
MOTION
Frames:    7
Frame Time:    0.010000
1.685224    82.393555    -64.142555    4.627884    4.418821    5.010556    -3.428994    -13.908648    -1.419783    2.489995    -0.725135    -0.985706    -1.655632    31.679865    -1.240285    -1.914489    -4.297208    -1.887032    20.322170    2.284523    6.520267    -30.947283    4.947131    -15.772898    4.698285    -5.401105    -0.385870    -18.078218    -4.939106    -2.816005    -16.520912    1.536196    12.169126    19.764854    -0.701211    6.653334    -2.648077    -5.723512    0.108062    3.963705    -5.392210    9.525170    -1.829134    5.660684    -0.149513    -1.731012    -8.200415    -4.440364    -0.581369    2.208126    -2.712812    -0.515717    -3.277001    0.736713    -11.920701    5.651784    -0.245075    7.982853    -9.212349    2.594986    0.910979    -2.395390    -11.649967    -1.000321    -0.065451    1.795065    
1.683342    82.388298    -64.147507    4.620470    4.407683    4.979389    -3.424161    -13.902395    -1.414352    2.502233    -0.717460    -0.981090    -1.659600    31.660549    -1.249337    -1.841622    -4.296790    -1.883620    20.328243    2.318185    6.526034    -30.922482    4.950627    -15.796010    4.698155    -5.399661    -0.382719    -18.126429    -4.943136    -2.774750    -16.524258    1.541161    12.186828    19.759048    -0.650859    6.646392    -2.665228    -5.751564    0.096108    4.004241    -5.417027    9.529333    -1.820747    5.690783    -0.061755    -1.763955    -8.229187    -4.393808    -0.227224    2.327944    -2.827897    -0.529578    -3.515228    0.757666    -11.907225    5.681150    -0.263703    7.987054    -9.274286    2.624480    0.993308    -2.428928    -11.156523    -0.711320    -0.095302    1.276902    
1.683682    82.382164    -64.153694    4.612901    4.406194    4.945779    -3.411218    -13.905244    -1.406159    2.509210    -0.707583    -0.974567    -1.195742    31.690189    -1.335438    -2.438052    -4.397684    -2.011937    20.314156    2.317292    6.520866    -30.864777    5.001531    -15.778823    4.678896    -5.435793    -0.438023    -18.232269    -4.962320    -2.850751    -16.532516    1.549648    12.195758    19.750305    -0.575963    6.647593    -2.681052    -5.802090    0.100114    4.020863    -5.466476    9.518472    -1.808922    5.713892    -0.032022    -1.788276    -8.260675    -4.390115    -0.218825    2.308760    -2.797694    -0.497974    -3.444449    0.712129    -11.901307    5.693312    -0.265306    7.985919    -9.321894    2.691263    1.153580    -2.400740    -11.219859    -0.658426    -0.194403    1.183225    
1.688227    82.376366    -64.159256    4.606614    4.400876    4.913869    -3.387578    -13.906551    -1.397218    2.494751    -0.697122    -0.968747    -1.188922    31.669123    -1.356896    -2.391453    -4.397130    -2.024517    20.345673    2.302591    6.529846    -30.871729    5.043433    -15.772611    4.682891    -5.483565    -0.437206    -18.243242    -5.006279    -2.873184    -16.522385    1.561185    12.200287    19.732828    -0.605519    6.671809    -2.684327    -5.783938    0.054261    4.047069    -5.446239    9.545781    -1.814691    5.742473    0.035665    -1.752593    -8.330748    -4.542780    -0.373885    2.292028    -2.664304    -0.405255    -3.400785    0.579375    -11.899875    5.713069    -0.273263    7.998036    -9.381478    2.688038    0.986010    -2.368503    -11.154249    -0.693616    -0.074230    1.244841    
1.690589    82.371208    -64.165779    4.596936    4.403436    4.870752    -3.366446    -13.918911    -1.382645    2.493068    -0.681654    -0.956798    -1.150416    31.665377    -1.380378    -2.396270    -4.431782    -2.044591    20.342525    2.315829    6.528789    -30.863163    5.002016    -15.759913    4.661645    -5.547092    -0.463070    -18.171194    -5.058518    -2.949832    -16.512487    1.566281    12.209867    19.705210    -0.594628    6.678063    -2.692194    -5.797583    0.027888    4.064864    -5.458649    9.556600    -1.804302    5.761799    0.059035    -1.778834    -8.363100    -4.512097    -0.238735    2.315574    -2.727997    -0.509878    -3.403155    0.728959    -11.889360    5.713100    -0.280764    7.992605    -9.422623    2.705382    0.966562    -2.341548    -11.122414    -0.709447    -0.047424    1.272882    
1.696985    82.366882    -64.172951    4.587502    4.402434    4.830698    -3.346370    -13.921394    -1.369430    2.503581    -0.676804    -0.946064    -1.208692    31.642403    -1.387666    -2.299032    -4.424250    -2.043124    20.316185    2.343165    6.538518    -30.851656    4.941665    -15.767929    4.645697    -5.572084    -0.478473    -18.120424    -5.075706    -3.003976    -16.521135    1.572628    12.215459    19.691765    -0.614262    6.687002    -2.711985    -5.802495    0.018758    4.109695    -5.460591    9.540824    -1.808682    5.790773    0.066330    -1.760120    -8.430861    -4.496230    -0.261715    2.342004    -2.715982    -0.502890    -3.433866    0.719110    -11.891126    5.716537    -0.260687    8.004280    -9.459767    2.769999    0.996108    -2.342529    -11.182487    -0.707198    -0.025207    1.268543    
1.706311    82.362877    -64.180847    4.576261    4.401137    4.788832    -3.314059    -13.922065    -1.354900    2.499336    -0.678010    -0.935362    -1.184970    31.635904    -1.392500    -2.308364    -4.444011    -2.046509    20.328867    2.325405    6.551291    -30.892210    4.925682    -15.755702    4.662362    -5.557973    -0.494480    -18.079737    -5.060624    -3.012268    -16.517731    1.567114    12.228765    19.665676    -0.594533    6.684344    -2.723226    -5.818198    0.011193    4.152852    -5.473673    9.519663    -1.813640    5.820786    0.081507    -1.754560    -8.486014    -4.433623    -0.231874    2.341810    -2.728772    -0.477088    -3.386649    0.682009    -11.887482    5.720160    -0.232887    8.011735    -9.502345    2.726628    0.978211    -2.309116    -11.122989    -0.692093    -0.037862    1.241619    
